<?xml version="1.0" standalone="no"?>
<!DOCTYPE svg PUBLIC "-//W3C//DTD SVG 20010904//EN"
 "http://www.w3.org/TR/2001/REC-SVG-20010904/DTD/svg10.dtd">
<svg version="1.0" xmlns="http://www.w3.org/2000/svg"
 width="2560.000000pt" height="2560.000000pt" viewBox="0 0 2560.000000 2560.000000"
 preserveAspectRatio="xMidYMid meet">
<metadata>
Created by potrace 1.14, written by Peter Selinger 2001-2017
</metadata>
<g transform="translate(0.000000,2560.000000) scale(0.100000,-0.100000)"
fill="#000000" stroke="none">
<path d="M4440 15244 c-648 -46 -1280 -306 -1744 -718 -175 -157 -286 -275
-409 -440 -386 -515 -601 -1129 -648 -1848 -14 -208 -6 -587 16 -778 83 -718
322 -1292 736 -1764 390 -445 937 -750 1569 -875 232 -46 342 -55 650 -55 260
0 312 2 440 23 532 84 963 281 1353 619 96 83 267 258 267 273 0 6 -489 598
-856 1038 -2 2 -48 -38 -102 -90 -129 -124 -258 -214 -417 -293 -216 -108
-389 -149 -620 -149 -155 0 -270 17 -404 59 -511 163 -843 666 -926 1404 -20
179 -20 525 1 695 68 575 328 1048 708 1290 304 194 687 242 1031 130 172 -57
352 -161 544 -315 l105 -84 32 39 c308 373 824 1008 824 1015 0 25 -229 221
-388 332 -355 249 -745 406 -1177 473 -97 15 -469 27 -585 19z"/>
<path d="M9307 14695 c-312 -64 -556 -253 -700 -540 -169 -339 -155 -844 34
-1165 170 -289 480 -455 849 -453 194 0 338 40 489 132 66 41 201 155 201 171
0 6 -243 305 -281 344 -5 5 -26 -8 -52 -32 -58 -52 -108 -83 -182 -112 -84
-32 -225 -33 -307 -1 -149 58 -245 195 -285 406 -19 99 -13 312 11 400 44 161
141 291 261 349 49 25 76 30 151 34 118 6 194 -18 299 -93 l74 -53 145 176
145 177 -42 38 c-103 93 -251 174 -393 213 -82 23 -327 28 -417 9z"/>
<path d="M10780 13620 l0 -1050 675 0 675 0 0 235 0 235 -395 0 -395 0 0 815
0 815 -280 0 -280 0 0 -1050z"/>
<path d="M12650 14063 c0 -617 4 -709 40 -879 54 -260 186 -452 379 -553 261
-136 697 -129 937 15 78 46 156 123 210 206 55 83 80 139 111 248 51 180 55
239 60 928 l5 642 -271 0 -271 0 0 -607 c0 -632 -5 -738 -42 -849 -27 -83 -89
-155 -156 -181 -57 -22 -188 -24 -246 -4 -56 19 -120 83 -146 143 -46 108 -49
161 -50 851 l0 647 -280 0 -280 0 0 -607z"/>
<path d="M15142 13623 l3 -1048 495 0 c523 0 562 3 715 52 224 72 377 224 426
423 20 82 16 241 -9 317 -45 141 -159 258 -297 303 -20 7 -35 16 -33 20 2 5
25 23 53 42 147 98 232 331 195 529 -33 175 -151 294 -351 358 -144 46 -213
51 -720 51 l-479 0 2 -1047z m908 600 c59 -27 87 -58 99 -113 22 -99 -32 -200
-125 -236 -35 -13 -79 -17 -182 -18 l-137 -1 -3 199 -2 198 152 -4 c127 -4
161 -8 198 -25z m57 -798 c97 -29 143 -91 143 -192 -1 -101 -41 -162 -135
-205 -45 -20 -70 -23 -232 -26 l-183 -4 0 219 c0 121 3 223 8 228 12 13 343
-3 399 -20z"/>
<path d="M4907 12313 c-4 -3 -7 -269 -7 -590 l0 -583 1275 0 1275 0 0 590 0
590 -1268 0 c-698 0 -1272 -3 -1275 -7z"/>
<path d="M9700 11759 c-153 -23 -298 -66 -428 -125 -245 -112 -494 -349 -624
-594 -209 -397 -246 -948 -91 -1394 133 -385 426 -676 813 -806 348 -117 742
-118 1073 -4 181 63 320 141 464 260 11 9 13 139 13 708 l0 696 -555 0 -555 0
0 -315 0 -315 215 0 215 0 0 -201 0 -200 -47 -22 c-43 -20 -64 -22 -208 -22
-182 0 -243 12 -365 72 -98 47 -211 158 -262 258 -136 264 -144 679 -18 952
90 193 217 312 394 369 224 71 463 26 660 -126 66 -51 69 -52 86 -34 79 86
381 468 377 478 -7 17 -143 126 -213 171 -144 92 -319 159 -493 189 -102 17
-354 20 -451 5z"/>
<path d="M18370 11755 c-232 -38 -434 -134 -590 -281 -166 -157 -255 -343
-267 -559 -20 -358 161 -653 502 -819 61 -30 242 -109 404 -176 307 -127 328
-137 374 -179 100 -91 66 -240 -68 -297 -53 -23 -252 -31 -338 -14 -148 29
-328 109 -466 208 -50 36 -80 51 -88 46 -18 -13 -423 -504 -423 -514 0 -14 80
-78 175 -141 355 -235 812 -329 1218 -249 493 96 813 428 834 865 9 177 -30
350 -108 482 -49 82 -180 209 -274 265 -75 45 -269 126 -605 255 -230 89 -310
136 -346 204 -45 89 20 206 135 239 61 18 185 23 269 11 136 -20 290 -82 416
-167 28 -18 53 -30 57 -26 4 4 91 113 194 242 l187 235 -39 34 c-179 158 -398
269 -638 323 -118 26 -393 33 -515 13z"/>
<path d="M21065 11764 c-288 -43 -498 -143 -670 -319 -284 -290 -323 -719 -97
-1052 53 -78 171 -189 263 -246 70 -43 348 -167 624 -277 212 -84 266 -118
297 -187 40 -90 2 -179 -97 -228 -59 -30 -62 -30 -215 -30 -143 1 -162 3 -240
29 -121 40 -237 97 -346 172 -52 35 -98 64 -102 63 -6 0 -185 -212 -372 -442
l-65 -80 40 -34 c69 -60 208 -149 312 -201 483 -243 1090 -238 1471 10 298
195 448 506 411 853 -25 224 -118 397 -288 533 -84 67 -194 123 -396 202 -544
213 -552 217 -613 274 -74 69 -60 191 28 250 64 42 107 51 240 51 180 -1 312
-42 484 -150 l85 -53 19 22 c17 18 121 149 312 390 l54 69 -59 55 c-154 140
-387 255 -625 307 -73 16 -386 29 -455 19z"/>
<path d="M12157 11713 c-2 -5 -9 -24 -15 -43 -6 -19 -49 -161 -96 -315 -574
-1888 -634 -2085 -711 -2335 -34 -113 -60 -208 -58 -212 2 -5 177 -8 389 -8
l384 0 10 23 c8 18 140 577 140 592 0 3 184 5 409 5 382 0 410 -1 415 -17 3
-10 35 -146 71 -302 36 -156 68 -288 71 -292 6 -11 801 -12 807 -1 2 4 -67
241 -155 527 -159 522 -444 1458 -563 1850 -36 116 -86 282 -113 370 l-49 160
-466 3 c-256 1 -468 -1 -470 -5z m471 -618 c6 -22 43 -182 82 -355 39 -173 93
-405 120 -514 27 -110 48 -201 46 -203 -2 -2 -122 -2 -268 -1 l-265 3 43 175
c48 195 142 608 174 770 40 197 45 207 68 125z"/>
<path d="M14393 10838 c5 -927 6 -963 53 -1178 96 -444 331 -731 689 -843 194
-60 465 -82 681 -53 591 78 884 421 966 1131 9 80 12 342 13 965 l0 855 -372
3 -373 2 0 -862 c0 -885 -4 -981 -40 -1116 -47 -172 -123 -262 -258 -306 -83
-28 -268 -19 -342 15 -143 67 -216 216 -239 486 -7 69 -11 462 -11 951 l0 832
-386 0 -386 0 5 -882z"/>
<path d="M23199 9658 c-414 -145 -389 -782 36 -893 352 -91 657 257 535 611
-43 124 -122 212 -238 267 -59 28 -79 32 -167 35 -84 2 -111 -1 -166 -20z"/>
</g>
</svg>
